<?xml version="1.0" encoding="utf-8"?>
<svg viewBox="0 0 500 500" xmlns="http://www.w3.org/2000/svg">
  <defs/>
  <path id="Vector" d="M 106.359 71.077 C 107.458 87.248 110.199 103.085 114.578 118.17 L 92.678 139.999 C 85.188 118.17 80.445 95.079 78.797 71.077 L 106.359 71.077 Z M 286.33 289.685 C 301.848 294.049 317.732 296.765 333.79 297.851 L 333.79 324.954 C 309.7 323.323 286.514 318.594 264.43 311.323 L 286.33 289.685 Z M 123.884 34.69 L 59.999 34.69 C 49.965 34.69 41.751 42.888 41.751 52.891 C 41.751 223.655 180.649 362.059 352.038 362.059 C 362.081 362.059 370.296 353.878 370.296 343.874 L 370.296 280.401 C 370.296 270.398 362.081 262.215 352.038 262.215 C 329.41 262.215 307.327 258.572 286.88 251.845 C 285.052 251.125 283.05 250.949 281.226 250.949 C 276.475 250.949 271.908 252.755 268.265 256.223 L 228.108 296.222 C 176.456 269.854 134.11 227.843 107.825 176.37 L 147.982 136.356 C 153.086 131.273 154.548 124.179 152.545 117.803 C 145.792 97.444 142.14 75.615 142.14 52.891 C 142.14 42.888 133.926 34.69 123.884 34.69 Z" style="fill: rgb(236, 49, 49);"/>
</svg>