<svg width="41" height="39" viewBox="0 0 41 39" fill="none" xmlns="http://www.w3.org/2000/svg">
<g id="mic_none">
<path id="Vector" d="M20.0936 23.6737C22.8733 23.6737 25.1171 21.5627 25.1171 18.9476V9.49521C25.1171 6.88007 22.8733 4.76904 20.0936 4.76904C17.314 4.76904 15.0702 6.88007 15.0702 9.49521V18.9476C15.0702 21.5627 17.314 23.6737 20.0936 23.6737ZM18.4192 9.49521C18.4192 8.62875 19.1727 7.91982 20.0936 7.91982C21.0146 7.91982 21.7681 8.62875 21.7681 9.49521V18.9476C21.7681 19.814 21.0146 20.5229 20.0936 20.5229C19.1727 20.5229 18.4192 19.814 18.4192 18.9476V9.49521ZM28.466 18.9476C28.466 23.2956 24.7152 26.8245 20.0936 26.8245C15.4721 26.8245 11.7213 23.2956 11.7213 18.9476H8.37231C8.37231 24.5087 12.7427 29.0773 18.4192 29.8493V34.7015H21.7681V29.8493C27.4446 29.0773 31.815 24.5087 31.815 18.9476H28.466Z" fill="#3F484A"/>
</g>
</svg>
