<svg width="40" height="36" viewBox="0 0 40 36" fill="none" xmlns="http://www.w3.org/2000/svg">
<path id="Vector" d="M8.44366 4.26092C8.57322 5.98288 8.89714 7.66614 9.41541 9.27201L6.82407 11.5937C5.93869 9.27201 5.37723 6.81484 5.18288 4.26092L8.44366 4.26092ZM29.7359 27.517C31.5714 27.9814 33.4501 28.2716 35.3504 28.3877L35.3504 31.2705C32.5 31.0964 29.7575 30.5933 27.1445 29.8194L29.7359 27.517ZM10.5167 0.391359L2.95865 0.391358C1.77095 0.391358 0.799194 1.26201 0.799194 2.32614C0.79919 20.4937 17.2326 35.2174 37.5099 35.2174C38.6976 35.2174 39.6693 34.3468 39.6693 33.2827L39.6693 26.5303C39.6693 25.4661 38.6976 24.5955 37.5099 24.5955C34.8322 24.5955 32.2192 24.2085 29.8006 23.4927C29.5847 23.4153 29.3472 23.3959 29.1312 23.3959C28.5698 23.3959 28.0299 23.5894 27.598 23.957L22.8472 28.2135C16.736 25.4081 11.726 20.9387 8.61641 15.4633L13.3672 11.2068C13.9719 10.6651 14.1446 9.91049 13.9071 9.23331C13.1081 7.06636 12.6762 4.74462 12.6762 2.32614C12.6762 1.26201 11.7044 0.391359 10.5167 0.391359Z" fill="#2C3E50"/>
</svg>
